<mxfile host="app.diagrams.net" modified="2023-10-10T13:18:27.875Z" agent="Mozilla/5.0 (Windows NT 10.0; Win64; x64) AppleWebKit/537.36 (KHTML, like Gecko) Chrome/117.0.0.0 Safari/537.36" etag="ujngg5aAQahWyGQ0h13t" version="21.3.7" type="device">
  <diagram name="Page-1" id="_VvI8ZR9cp8DbdCS8-2Y">
    <mxGraphModel dx="1147" dy="600" grid="1" gridSize="10" guides="1" tooltips="1" connect="1" arrows="1" fold="1" page="1" pageScale="1" pageWidth="827" pageHeight="1169" math="0" shadow="0">
      <root>
        <mxCell id="0" />
        <mxCell id="1" parent="0" />
        <mxCell id="CvLaMPLfsGXKQuiB5E-C-1" value="" style="whiteSpace=wrap;html=1;aspect=fixed;" vertex="1" parent="1">
          <mxGeometry x="80" y="20" width="690" height="690" as="geometry" />
        </mxCell>
        <mxCell id="CvLaMPLfsGXKQuiB5E-C-3" value="" style="rounded=0;whiteSpace=wrap;html=1;" vertex="1" parent="1">
          <mxGeometry x="110" y="50" width="620" height="60" as="geometry" />
        </mxCell>
        <mxCell id="CvLaMPLfsGXKQuiB5E-C-4" value="" style="endArrow=none;html=1;rounded=0;entryX=0.25;entryY=0;entryDx=0;entryDy=0;exitX=0.25;exitY=1;exitDx=0;exitDy=0;" edge="1" parent="1" source="CvLaMPLfsGXKQuiB5E-C-3" target="CvLaMPLfsGXKQuiB5E-C-3">
          <mxGeometry width="50" height="50" relative="1" as="geometry">
            <mxPoint x="420" y="330" as="sourcePoint" />
            <mxPoint x="470" y="280" as="targetPoint" />
          </mxGeometry>
        </mxCell>
        <mxCell id="CvLaMPLfsGXKQuiB5E-C-5" value="" style="endArrow=none;html=1;rounded=0;entryX=0.5;entryY=0;entryDx=0;entryDy=0;" edge="1" parent="1" target="CvLaMPLfsGXKQuiB5E-C-3">
          <mxGeometry width="50" height="50" relative="1" as="geometry">
            <mxPoint x="420" y="110" as="sourcePoint" />
            <mxPoint x="470" y="280" as="targetPoint" />
          </mxGeometry>
        </mxCell>
        <mxCell id="CvLaMPLfsGXKQuiB5E-C-6" value="" style="endArrow=none;html=1;rounded=0;entryX=0.75;entryY=0;entryDx=0;entryDy=0;exitX=0.75;exitY=1;exitDx=0;exitDy=0;" edge="1" parent="1" source="CvLaMPLfsGXKQuiB5E-C-3" target="CvLaMPLfsGXKQuiB5E-C-3">
          <mxGeometry width="50" height="50" relative="1" as="geometry">
            <mxPoint x="420" y="330" as="sourcePoint" />
            <mxPoint x="470" y="280" as="targetPoint" />
          </mxGeometry>
        </mxCell>
        <mxCell id="CvLaMPLfsGXKQuiB5E-C-7" value="profil" style="text;strokeColor=none;fillColor=none;align=left;verticalAlign=middle;spacingLeft=4;spacingRight=4;overflow=hidden;points=[[0,0.5],[1,0.5]];portConstraint=eastwest;rotatable=0;whiteSpace=wrap;html=1;" vertex="1" parent="1">
          <mxGeometry x="150" y="65" width="80" height="30" as="geometry" />
        </mxCell>
        <mxCell id="CvLaMPLfsGXKQuiB5E-C-8" value="&lt;font color=&quot;#ff3333&quot;&gt;basket&lt;/font&gt;" style="text;strokeColor=none;fillColor=none;align=left;verticalAlign=middle;spacingLeft=4;spacingRight=4;overflow=hidden;points=[[0,0.5],[1,0.5]];portConstraint=eastwest;rotatable=0;whiteSpace=wrap;html=1;" vertex="1" parent="1">
          <mxGeometry x="310" y="62.5" width="90" height="35" as="geometry" />
        </mxCell>
        <mxCell id="CvLaMPLfsGXKQuiB5E-C-9" value="catÃ©gorie" style="text;strokeColor=none;fillColor=none;align=left;verticalAlign=middle;spacingLeft=4;spacingRight=4;overflow=hidden;points=[[0,0.5],[1,0.5]];portConstraint=eastwest;rotatable=0;whiteSpace=wrap;html=1;" vertex="1" parent="1">
          <mxGeometry x="620" y="65" width="80" height="30" as="geometry" />
        </mxCell>
        <mxCell id="CvLaMPLfsGXKQuiB5E-C-10" value="promo" style="text;strokeColor=none;fillColor=none;align=left;verticalAlign=middle;spacingLeft=4;spacingRight=4;overflow=hidden;points=[[0,0.5],[1,0.5]];portConstraint=eastwest;rotatable=0;whiteSpace=wrap;html=1;" vertex="1" parent="1">
          <mxGeometry x="460" y="62.5" width="80" height="30" as="geometry" />
        </mxCell>
        <mxCell id="CvLaMPLfsGXKQuiB5E-C-11" value="" style="rounded=0;whiteSpace=wrap;html=1;" vertex="1" parent="1">
          <mxGeometry x="120" y="170" width="610" height="60" as="geometry" />
        </mxCell>
        <mxCell id="CvLaMPLfsGXKQuiB5E-C-12" value="jeans bleu * 1" style="text;html=1;strokeColor=none;fillColor=none;align=center;verticalAlign=middle;whiteSpace=wrap;rounded=0;" vertex="1" parent="1">
          <mxGeometry x="155" y="182.5" width="80" height="35" as="geometry" />
        </mxCell>
        <mxCell id="CvLaMPLfsGXKQuiB5E-C-13" value="" style="rounded=0;whiteSpace=wrap;html=1;" vertex="1" parent="1">
          <mxGeometry x="120" y="260" width="610" height="60" as="geometry" />
        </mxCell>
        <mxCell id="CvLaMPLfsGXKQuiB5E-C-14" value="" style="rounded=0;whiteSpace=wrap;html=1;" vertex="1" parent="1">
          <mxGeometry x="120" y="355" width="610" height="60" as="geometry" />
        </mxCell>
        <mxCell id="CvLaMPLfsGXKQuiB5E-C-15" value="adidas * 1" style="text;html=1;strokeColor=none;fillColor=none;align=center;verticalAlign=middle;whiteSpace=wrap;rounded=0;" vertex="1" parent="1">
          <mxGeometry x="165" y="275" width="60" height="30" as="geometry" />
        </mxCell>
        <mxCell id="CvLaMPLfsGXKQuiB5E-C-16" value="iphone20 * 1" style="text;html=1;strokeColor=none;fillColor=none;align=center;verticalAlign=middle;whiteSpace=wrap;rounded=0;" vertex="1" parent="1">
          <mxGeometry x="165" y="370" width="70" height="30" as="geometry" />
        </mxCell>
        <mxCell id="CvLaMPLfsGXKQuiB5E-C-17" value="delete" style="ellipse;whiteSpace=wrap;html=1;" vertex="1" parent="1">
          <mxGeometry x="630" y="185" width="80" height="30" as="geometry" />
        </mxCell>
        <mxCell id="CvLaMPLfsGXKQuiB5E-C-18" value="delete" style="ellipse;whiteSpace=wrap;html=1;" vertex="1" parent="1">
          <mxGeometry x="630" y="275" width="80" height="30" as="geometry" />
        </mxCell>
        <mxCell id="CvLaMPLfsGXKQuiB5E-C-19" value="delete" style="ellipse;whiteSpace=wrap;html=1;" vertex="1" parent="1">
          <mxGeometry x="630" y="370" width="80" height="30" as="geometry" />
        </mxCell>
        <mxCell id="CvLaMPLfsGXKQuiB5E-C-20" value="30 euros" style="rounded=0;whiteSpace=wrap;html=1;" vertex="1" parent="1">
          <mxGeometry x="290" y="185" width="90" height="30" as="geometry" />
        </mxCell>
        <mxCell id="CvLaMPLfsGXKQuiB5E-C-22" value="50 euros" style="rounded=0;whiteSpace=wrap;html=1;" vertex="1" parent="1">
          <mxGeometry x="290" y="275" width="90" height="30" as="geometry" />
        </mxCell>
        <mxCell id="CvLaMPLfsGXKQuiB5E-C-23" value="3000 euros" style="rounded=0;whiteSpace=wrap;html=1;" vertex="1" parent="1">
          <mxGeometry x="290" y="370" width="90" height="30" as="geometry" />
        </mxCell>
        <mxCell id="CvLaMPLfsGXKQuiB5E-C-24" value="" style="shape=cross;whiteSpace=wrap;html=1;" vertex="1" parent="1">
          <mxGeometry x="470" y="190" width="20" height="20" as="geometry" />
        </mxCell>
        <mxCell id="CvLaMPLfsGXKQuiB5E-C-25" value="" style="shape=cross;whiteSpace=wrap;html=1;" vertex="1" parent="1">
          <mxGeometry x="470" y="280" width="20" height="20" as="geometry" />
        </mxCell>
        <mxCell id="CvLaMPLfsGXKQuiB5E-C-26" value="" style="shape=cross;whiteSpace=wrap;html=1;" vertex="1" parent="1">
          <mxGeometry x="470" y="375" width="20" height="20" as="geometry" />
        </mxCell>
        <mxCell id="CvLaMPLfsGXKQuiB5E-C-29" value="" style="rounded=0;whiteSpace=wrap;html=1;" vertex="1" parent="1">
          <mxGeometry x="550" y="195" width="20" height="10" as="geometry" />
        </mxCell>
        <mxCell id="CvLaMPLfsGXKQuiB5E-C-32" value="" style="rounded=0;whiteSpace=wrap;html=1;" vertex="1" parent="1">
          <mxGeometry x="550" y="285" width="20" height="10" as="geometry" />
        </mxCell>
        <mxCell id="CvLaMPLfsGXKQuiB5E-C-33" value="" style="rounded=0;whiteSpace=wrap;html=1;" vertex="1" parent="1">
          <mxGeometry x="550" y="380" width="20" height="10" as="geometry" />
        </mxCell>
        <mxCell id="CvLaMPLfsGXKQuiB5E-C-34" value="" style="rounded=0;whiteSpace=wrap;html=1;" vertex="1" parent="1">
          <mxGeometry x="80" y="780" width="690" height="630" as="geometry" />
        </mxCell>
        <mxCell id="CvLaMPLfsGXKQuiB5E-C-37" value="" style="rounded=0;whiteSpace=wrap;html=1;" vertex="1" parent="1">
          <mxGeometry x="115" y="810" width="620" height="60" as="geometry" />
        </mxCell>
        <mxCell id="CvLaMPLfsGXKQuiB5E-C-38" value="" style="endArrow=none;html=1;rounded=0;entryX=0.25;entryY=0;entryDx=0;entryDy=0;exitX=0.25;exitY=1;exitDx=0;exitDy=0;" edge="1" parent="1" source="CvLaMPLfsGXKQuiB5E-C-37" target="CvLaMPLfsGXKQuiB5E-C-37">
          <mxGeometry width="50" height="50" relative="1" as="geometry">
            <mxPoint x="425" y="1090" as="sourcePoint" />
            <mxPoint x="475" y="1040" as="targetPoint" />
          </mxGeometry>
        </mxCell>
        <mxCell id="CvLaMPLfsGXKQuiB5E-C-39" value="" style="endArrow=none;html=1;rounded=0;entryX=0.5;entryY=0;entryDx=0;entryDy=0;" edge="1" parent="1" target="CvLaMPLfsGXKQuiB5E-C-37">
          <mxGeometry width="50" height="50" relative="1" as="geometry">
            <mxPoint x="425" y="870" as="sourcePoint" />
            <mxPoint x="475" y="1040" as="targetPoint" />
          </mxGeometry>
        </mxCell>
        <mxCell id="CvLaMPLfsGXKQuiB5E-C-40" value="" style="endArrow=none;html=1;rounded=0;entryX=0.75;entryY=0;entryDx=0;entryDy=0;exitX=0.75;exitY=1;exitDx=0;exitDy=0;" edge="1" parent="1" source="CvLaMPLfsGXKQuiB5E-C-37" target="CvLaMPLfsGXKQuiB5E-C-37">
          <mxGeometry width="50" height="50" relative="1" as="geometry">
            <mxPoint x="425" y="1090" as="sourcePoint" />
            <mxPoint x="475" y="1040" as="targetPoint" />
          </mxGeometry>
        </mxCell>
        <mxCell id="CvLaMPLfsGXKQuiB5E-C-41" value="profil" style="text;strokeColor=none;fillColor=none;align=left;verticalAlign=middle;spacingLeft=4;spacingRight=4;overflow=hidden;points=[[0,0.5],[1,0.5]];portConstraint=eastwest;rotatable=0;whiteSpace=wrap;html=1;" vertex="1" parent="1">
          <mxGeometry x="155" y="825" width="80" height="30" as="geometry" />
        </mxCell>
        <mxCell id="CvLaMPLfsGXKQuiB5E-C-42" value="&lt;font&gt;basket&lt;/font&gt;" style="text;strokeColor=none;fillColor=none;align=left;verticalAlign=middle;spacingLeft=4;spacingRight=4;overflow=hidden;points=[[0,0.5],[1,0.5]];portConstraint=eastwest;rotatable=0;whiteSpace=wrap;html=1;fontColor=#121212;" vertex="1" parent="1">
          <mxGeometry x="315" y="822.5" width="90" height="35" as="geometry" />
        </mxCell>
        <mxCell id="CvLaMPLfsGXKQuiB5E-C-43" value="&lt;font color=&quot;#ff3333&quot;&gt;catÃ©gorie&lt;/font&gt;" style="text;strokeColor=none;fillColor=none;align=left;verticalAlign=middle;spacingLeft=4;spacingRight=4;overflow=hidden;points=[[0,0.5],[1,0.5]];portConstraint=eastwest;rotatable=0;whiteSpace=wrap;html=1;" vertex="1" parent="1">
          <mxGeometry x="625" y="825" width="80" height="30" as="geometry" />
        </mxCell>
        <mxCell id="CvLaMPLfsGXKQuiB5E-C-44" value="promo" style="text;strokeColor=none;fillColor=none;align=left;verticalAlign=middle;spacingLeft=4;spacingRight=4;overflow=hidden;points=[[0,0.5],[1,0.5]];portConstraint=eastwest;rotatable=0;whiteSpace=wrap;html=1;" vertex="1" parent="1">
          <mxGeometry x="465" y="822.5" width="80" height="30" as="geometry" />
        </mxCell>
        <mxCell id="CvLaMPLfsGXKQuiB5E-C-48" value="jeu" style="whiteSpace=wrap;html=1;aspect=fixed;" vertex="1" parent="1">
          <mxGeometry x="145" y="980" width="130" height="130" as="geometry" />
        </mxCell>
        <mxCell id="CvLaMPLfsGXKQuiB5E-C-49" value="sporrt" style="whiteSpace=wrap;html=1;aspect=fixed;" vertex="1" parent="1">
          <mxGeometry x="348.5" y="980" width="130" height="130" as="geometry" />
        </mxCell>
        <mxCell id="CvLaMPLfsGXKQuiB5E-C-50" value="jardin" style="whiteSpace=wrap;html=1;aspect=fixed;" vertex="1" parent="1">
          <mxGeometry x="550" y="980" width="130" height="130" as="geometry" />
        </mxCell>
        <mxCell id="CvLaMPLfsGXKQuiB5E-C-51" value="vetement" style="whiteSpace=wrap;html=1;aspect=fixed;" vertex="1" parent="1">
          <mxGeometry x="145" y="1190" width="130" height="130" as="geometry" />
        </mxCell>
        <mxCell id="CvLaMPLfsGXKQuiB5E-C-52" value="jeu" style="whiteSpace=wrap;html=1;aspect=fixed;" vertex="1" parent="1">
          <mxGeometry x="349" y="1190" width="130" height="130" as="geometry" />
        </mxCell>
        <mxCell id="CvLaMPLfsGXKQuiB5E-C-53" value="alimentaire" style="whiteSpace=wrap;html=1;aspect=fixed;" vertex="1" parent="1">
          <mxGeometry x="550" y="1190" width="130" height="130" as="geometry" />
        </mxCell>
        <mxCell id="CvLaMPLfsGXKQuiB5E-C-54" value="" style="rounded=0;whiteSpace=wrap;html=1;" vertex="1" parent="1">
          <mxGeometry x="80" y="1500" width="740" height="630" as="geometry" />
        </mxCell>
        <mxCell id="CvLaMPLfsGXKQuiB5E-C-55" value="" style="rounded=0;whiteSpace=wrap;html=1;" vertex="1" parent="1">
          <mxGeometry x="115" y="1530" width="685" height="50" as="geometry" />
        </mxCell>
        <mxCell id="CvLaMPLfsGXKQuiB5E-C-56" value="" style="endArrow=none;html=1;rounded=0;entryX=0.25;entryY=0;entryDx=0;entryDy=0;exitX=0.25;exitY=1;exitDx=0;exitDy=0;" edge="1" parent="1" source="CvLaMPLfsGXKQuiB5E-C-55" target="CvLaMPLfsGXKQuiB5E-C-55">
          <mxGeometry width="50" height="50" relative="1" as="geometry">
            <mxPoint x="425" y="1810" as="sourcePoint" />
            <mxPoint x="475" y="1760" as="targetPoint" />
          </mxGeometry>
        </mxCell>
        <mxCell id="CvLaMPLfsGXKQuiB5E-C-57" value="" style="endArrow=none;html=1;rounded=0;entryX=0.5;entryY=0;entryDx=0;entryDy=0;exitX=0.5;exitY=1;exitDx=0;exitDy=0;" edge="1" parent="1" target="CvLaMPLfsGXKQuiB5E-C-55" source="CvLaMPLfsGXKQuiB5E-C-55">
          <mxGeometry width="50" height="50" relative="1" as="geometry">
            <mxPoint x="425" y="1590" as="sourcePoint" />
            <mxPoint x="475" y="1760" as="targetPoint" />
          </mxGeometry>
        </mxCell>
        <mxCell id="CvLaMPLfsGXKQuiB5E-C-58" value="" style="endArrow=none;html=1;rounded=0;entryX=0.75;entryY=0;entryDx=0;entryDy=0;exitX=0.75;exitY=1;exitDx=0;exitDy=0;" edge="1" parent="1" source="CvLaMPLfsGXKQuiB5E-C-55" target="CvLaMPLfsGXKQuiB5E-C-55">
          <mxGeometry width="50" height="50" relative="1" as="geometry">
            <mxPoint x="425" y="1810" as="sourcePoint" />
            <mxPoint x="475" y="1760" as="targetPoint" />
          </mxGeometry>
        </mxCell>
        <mxCell id="CvLaMPLfsGXKQuiB5E-C-59" value="profil" style="text;strokeColor=none;fillColor=none;align=left;verticalAlign=middle;spacingLeft=4;spacingRight=4;overflow=hidden;points=[[0,0.5],[1,0.5]];portConstraint=eastwest;rotatable=0;whiteSpace=wrap;html=1;" vertex="1" parent="1">
          <mxGeometry x="180" y="1540" width="80" height="30" as="geometry" />
        </mxCell>
        <mxCell id="CvLaMPLfsGXKQuiB5E-C-60" value="&lt;font&gt;basket&lt;/font&gt;" style="text;strokeColor=none;fillColor=none;align=left;verticalAlign=middle;spacingLeft=4;spacingRight=4;overflow=hidden;points=[[0,0.5],[1,0.5]];portConstraint=eastwest;rotatable=0;whiteSpace=wrap;html=1;fontColor=#121212;" vertex="1" parent="1">
          <mxGeometry x="345" y="1537.5" width="90" height="35" as="geometry" />
        </mxCell>
        <mxCell id="CvLaMPLfsGXKQuiB5E-C-61" value="&lt;font&gt;catÃ©gorie&lt;/font&gt;" style="text;strokeColor=none;fillColor=none;align=left;verticalAlign=middle;spacingLeft=4;spacingRight=4;overflow=hidden;points=[[0,0.5],[1,0.5]];portConstraint=eastwest;rotatable=0;whiteSpace=wrap;html=1;fontColor=#121212;" vertex="1" parent="1">
          <mxGeometry x="680" y="1540" width="80" height="30" as="geometry" />
        </mxCell>
        <mxCell id="CvLaMPLfsGXKQuiB5E-C-62" value="&lt;font color=&quot;#ff3333&quot;&gt;promo&lt;/font&gt;" style="text;strokeColor=none;fillColor=none;align=left;verticalAlign=middle;spacingLeft=4;spacingRight=4;overflow=hidden;points=[[0,0.5],[1,0.5]];portConstraint=eastwest;rotatable=0;whiteSpace=wrap;html=1;" vertex="1" parent="1">
          <mxGeometry x="510" y="1540" width="80" height="30" as="geometry" />
        </mxCell>
        <mxCell id="CvLaMPLfsGXKQuiB5E-C-69" value="" style="rounded=0;whiteSpace=wrap;html=1;" vertex="1" parent="1">
          <mxGeometry x="120" y="1640" width="130" height="156" as="geometry" />
        </mxCell>
        <mxCell id="CvLaMPLfsGXKQuiB5E-C-71" value="" style="rounded=0;whiteSpace=wrap;html=1;" vertex="1" parent="1">
          <mxGeometry x="135" y="1656" width="95" height="90" as="geometry" />
        </mxCell>
        <mxCell id="CvLaMPLfsGXKQuiB5E-C-72" value="classeur" style="text;html=1;strokeColor=none;fillColor=none;align=center;verticalAlign=middle;whiteSpace=wrap;rounded=0;" vertex="1" parent="1">
          <mxGeometry x="150" y="1756" width="60" height="30" as="geometry" />
        </mxCell>
        <mxCell id="CvLaMPLfsGXKQuiB5E-C-73" value="" style="rounded=0;whiteSpace=wrap;html=1;" vertex="1" parent="1">
          <mxGeometry x="305" y="1640" width="130" height="156" as="geometry" />
        </mxCell>
        <mxCell id="CvLaMPLfsGXKQuiB5E-C-74" value="" style="rounded=0;whiteSpace=wrap;html=1;" vertex="1" parent="1">
          <mxGeometry x="320" y="1656" width="95" height="90" as="geometry" />
        </mxCell>
        <mxCell id="CvLaMPLfsGXKQuiB5E-C-75" value="bonbons" style="text;html=1;strokeColor=none;fillColor=none;align=center;verticalAlign=middle;whiteSpace=wrap;rounded=0;" vertex="1" parent="1">
          <mxGeometry x="335" y="1756" width="60" height="30" as="geometry" />
        </mxCell>
        <mxCell id="CvLaMPLfsGXKQuiB5E-C-76" value="" style="rounded=0;whiteSpace=wrap;html=1;" vertex="1" parent="1">
          <mxGeometry x="487.5" y="1640" width="130" height="156" as="geometry" />
        </mxCell>
        <mxCell id="CvLaMPLfsGXKQuiB5E-C-77" value="" style="rounded=0;whiteSpace=wrap;html=1;" vertex="1" parent="1">
          <mxGeometry x="505" y="1656" width="95" height="90" as="geometry" />
        </mxCell>
        <mxCell id="CvLaMPLfsGXKQuiB5E-C-78" value="sac Ã  dos" style="text;html=1;strokeColor=none;fillColor=none;align=center;verticalAlign=middle;whiteSpace=wrap;rounded=0;" vertex="1" parent="1">
          <mxGeometry x="520" y="1756" width="60" height="30" as="geometry" />
        </mxCell>
        <mxCell id="CvLaMPLfsGXKQuiB5E-C-79" value="" style="rounded=0;whiteSpace=wrap;html=1;" vertex="1" parent="1">
          <mxGeometry x="660" y="1640" width="130" height="156" as="geometry" />
        </mxCell>
        <mxCell id="CvLaMPLfsGXKQuiB5E-C-80" value="" style="rounded=0;whiteSpace=wrap;html=1;" vertex="1" parent="1">
          <mxGeometry x="675" y="1656" width="95" height="90" as="geometry" />
        </mxCell>
        <mxCell id="CvLaMPLfsGXKQuiB5E-C-81" value="masque" style="text;html=1;strokeColor=none;fillColor=none;align=center;verticalAlign=middle;whiteSpace=wrap;rounded=0;" vertex="1" parent="1">
          <mxGeometry x="690" y="1756" width="60" height="30" as="geometry" />
        </mxCell>
        <mxCell id="CvLaMPLfsGXKQuiB5E-C-85" value="" style="rounded=0;whiteSpace=wrap;html=1;" vertex="1" parent="1">
          <mxGeometry x="122.5" y="1870" width="130" height="156" as="geometry" />
        </mxCell>
        <mxCell id="CvLaMPLfsGXKQuiB5E-C-86" value="" style="rounded=0;whiteSpace=wrap;html=1;" vertex="1" parent="1">
          <mxGeometry x="137.5" y="1886" width="95" height="90" as="geometry" />
        </mxCell>
        <mxCell id="CvLaMPLfsGXKQuiB5E-C-87" value="savon" style="text;html=1;strokeColor=none;fillColor=none;align=center;verticalAlign=middle;whiteSpace=wrap;rounded=0;" vertex="1" parent="1">
          <mxGeometry x="152.5" y="1986" width="60" height="30" as="geometry" />
        </mxCell>
        <mxCell id="CvLaMPLfsGXKQuiB5E-C-88" value="" style="rounded=0;whiteSpace=wrap;html=1;" vertex="1" parent="1">
          <mxGeometry x="307.5" y="1870" width="130" height="156" as="geometry" />
        </mxCell>
        <mxCell id="CvLaMPLfsGXKQuiB5E-C-89" value="" style="rounded=0;whiteSpace=wrap;html=1;" vertex="1" parent="1">
          <mxGeometry x="322.5" y="1886" width="95" height="90" as="geometry" />
        </mxCell>
        <mxCell id="CvLaMPLfsGXKQuiB5E-C-90" value="clalculatrice" style="text;html=1;strokeColor=none;fillColor=none;align=center;verticalAlign=middle;whiteSpace=wrap;rounded=0;" vertex="1" parent="1">
          <mxGeometry x="337.5" y="1986" width="60" height="30" as="geometry" />
        </mxCell>
        <mxCell id="CvLaMPLfsGXKQuiB5E-C-91" value="" style="rounded=0;whiteSpace=wrap;html=1;" vertex="1" parent="1">
          <mxGeometry x="490" y="1870" width="130" height="156" as="geometry" />
        </mxCell>
        <mxCell id="CvLaMPLfsGXKQuiB5E-C-92" value="" style="rounded=0;whiteSpace=wrap;html=1;" vertex="1" parent="1">
          <mxGeometry x="507.5" y="1886" width="95" height="90" as="geometry" />
        </mxCell>
        <mxCell id="CvLaMPLfsGXKQuiB5E-C-93" value="bloc note" style="text;html=1;strokeColor=none;fillColor=none;align=center;verticalAlign=middle;whiteSpace=wrap;rounded=0;" vertex="1" parent="1">
          <mxGeometry x="522.5" y="1986" width="60" height="30" as="geometry" />
        </mxCell>
        <mxCell id="CvLaMPLfsGXKQuiB5E-C-94" value="" style="rounded=0;whiteSpace=wrap;html=1;" vertex="1" parent="1">
          <mxGeometry x="662.5" y="1870" width="130" height="156" as="geometry" />
        </mxCell>
        <mxCell id="CvLaMPLfsGXKQuiB5E-C-95" value="" style="rounded=0;whiteSpace=wrap;html=1;" vertex="1" parent="1">
          <mxGeometry x="677.5" y="1886" width="95" height="90" as="geometry" />
        </mxCell>
        <mxCell id="CvLaMPLfsGXKQuiB5E-C-96" value="gel" style="text;html=1;strokeColor=none;fillColor=none;align=center;verticalAlign=middle;whiteSpace=wrap;rounded=0;" vertex="1" parent="1">
          <mxGeometry x="692.5" y="1986" width="60" height="30" as="geometry" />
        </mxCell>
        <mxCell id="CvLaMPLfsGXKQuiB5E-C-97" value="-50%" style="ellipse;whiteSpace=wrap;html=1;aspect=fixed;" vertex="1" parent="1">
          <mxGeometry x="225" y="1626" width="30" height="30" as="geometry" />
        </mxCell>
        <mxCell id="CvLaMPLfsGXKQuiB5E-C-98" value="-50%" style="ellipse;whiteSpace=wrap;html=1;aspect=fixed;" vertex="1" parent="1">
          <mxGeometry x="410" y="1626" width="30" height="30" as="geometry" />
        </mxCell>
        <mxCell id="CvLaMPLfsGXKQuiB5E-C-99" value="-50%" style="ellipse;whiteSpace=wrap;html=1;aspect=fixed;" vertex="1" parent="1">
          <mxGeometry x="595" y="1626" width="30" height="30" as="geometry" />
        </mxCell>
        <mxCell id="CvLaMPLfsGXKQuiB5E-C-100" value="-50%" style="ellipse;whiteSpace=wrap;html=1;aspect=fixed;" vertex="1" parent="1">
          <mxGeometry x="762.5" y="1626" width="30" height="30" as="geometry" />
        </mxCell>
        <mxCell id="CvLaMPLfsGXKQuiB5E-C-101" value="-50%" style="ellipse;whiteSpace=wrap;html=1;aspect=fixed;" vertex="1" parent="1">
          <mxGeometry x="225" y="1856" width="30" height="30" as="geometry" />
        </mxCell>
        <mxCell id="CvLaMPLfsGXKQuiB5E-C-102" value="-50%" style="ellipse;whiteSpace=wrap;html=1;aspect=fixed;" vertex="1" parent="1">
          <mxGeometry x="410" y="1856" width="30" height="30" as="geometry" />
        </mxCell>
        <mxCell id="CvLaMPLfsGXKQuiB5E-C-103" value="-50%" style="ellipse;whiteSpace=wrap;html=1;aspect=fixed;" vertex="1" parent="1">
          <mxGeometry x="595" y="1856" width="30" height="30" as="geometry" />
        </mxCell>
        <mxCell id="CvLaMPLfsGXKQuiB5E-C-104" value="-50%" style="ellipse;whiteSpace=wrap;html=1;aspect=fixed;" vertex="1" parent="1">
          <mxGeometry x="762.5" y="1856" width="30" height="30" as="geometry" />
        </mxCell>
        <mxCell id="CvLaMPLfsGXKQuiB5E-C-105" value="" style="shape=cross;whiteSpace=wrap;html=1;" vertex="1" parent="1">
          <mxGeometry x="225" y="1761" width="20" height="20" as="geometry" />
        </mxCell>
        <mxCell id="CvLaMPLfsGXKQuiB5E-C-107" value="" style="shape=cross;whiteSpace=wrap;html=1;" vertex="1" parent="1">
          <mxGeometry x="410" y="1761" width="20" height="20" as="geometry" />
        </mxCell>
        <mxCell id="CvLaMPLfsGXKQuiB5E-C-108" value="" style="shape=cross;whiteSpace=wrap;html=1;" vertex="1" parent="1">
          <mxGeometry x="590" y="1761" width="20" height="20" as="geometry" />
        </mxCell>
        <mxCell id="CvLaMPLfsGXKQuiB5E-C-109" value="" style="shape=cross;whiteSpace=wrap;html=1;" vertex="1" parent="1">
          <mxGeometry x="762.5" y="1761" width="20" height="20" as="geometry" />
        </mxCell>
        <mxCell id="CvLaMPLfsGXKQuiB5E-C-110" value="" style="shape=cross;whiteSpace=wrap;html=1;" vertex="1" parent="1">
          <mxGeometry x="225" y="1991" width="20" height="20" as="geometry" />
        </mxCell>
        <mxCell id="CvLaMPLfsGXKQuiB5E-C-111" value="" style="shape=cross;whiteSpace=wrap;html=1;" vertex="1" parent="1">
          <mxGeometry x="414" y="1991" width="20" height="20" as="geometry" />
        </mxCell>
        <mxCell id="CvLaMPLfsGXKQuiB5E-C-112" value="" style="shape=cross;whiteSpace=wrap;html=1;" vertex="1" parent="1">
          <mxGeometry x="595" y="1991" width="20" height="20" as="geometry" />
        </mxCell>
        <mxCell id="CvLaMPLfsGXKQuiB5E-C-113" value="" style="shape=cross;whiteSpace=wrap;html=1;" vertex="1" parent="1">
          <mxGeometry x="767.5" y="1991" width="20" height="20" as="geometry" />
        </mxCell>
      </root>
    </mxGraphModel>
  </diagram>
</mxfile>
